<mxfile host="app.diagrams.net" modified="2023-04-27T10:29:08.341Z" agent="5.0 (Windows NT 10.0; Win64; x64) AppleWebKit/537.36 (KHTML, like Gecko) Chrome/112.0.0.0 Safari/537.36" version="20.6.0" etag="KPvLBPehWu0u8CEuPQgU" type="github">
  <diagram id="KZ8GkF-zROIEnw8miasW" name="Page-1">
    <mxGraphModel dx="1246" dy="709" grid="1" gridSize="10" guides="1" tooltips="1" connect="1" arrows="1" fold="1" page="1" pageScale="1" pageWidth="1169" pageHeight="827" math="0" shadow="0">
      <root>
        <mxCell id="0" />
        <mxCell id="1" parent="0" />
        <mxCell id="6EPzkCrXPSWuWYdCbaQZ-4" value="" style="rounded=0;whiteSpace=wrap;html=1;" vertex="1" parent="1">
          <mxGeometry x="120" y="40" width="590" height="460" as="geometry" />
        </mxCell>
        <mxCell id="6EPzkCrXPSWuWYdCbaQZ-1" value="" style="verticalLabelPosition=bottom;html=1;verticalAlign=top;align=center;strokeColor=none;fillColor=#00BEF2;shape=mxgraph.azure.database;" vertex="1" parent="1">
          <mxGeometry x="150" y="290" width="70" height="90" as="geometry" />
        </mxCell>
        <mxCell id="6EPzkCrXPSWuWYdCbaQZ-2" value="" style="verticalLabelPosition=bottom;html=1;verticalAlign=top;align=center;strokeColor=none;fillColor=#00BEF2;shape=mxgraph.azure.azure_website;pointerEvents=1;" vertex="1" parent="1">
          <mxGeometry x="545" y="290" width="80" height="80" as="geometry" />
        </mxCell>
        <mxCell id="6EPzkCrXPSWuWYdCbaQZ-3" value="" style="aspect=fixed;html=1;points=[];align=center;image;fontSize=12;image=img/lib/azure2/containers/Container_Registries.svg;" vertex="1" parent="1">
          <mxGeometry x="557" y="100" width="68" height="61" as="geometry" />
        </mxCell>
        <mxCell id="6EPzkCrXPSWuWYdCbaQZ-8" value="" style="endArrow=classic;html=1;rounded=0;" edge="1" parent="1">
          <mxGeometry relative="1" as="geometry">
            <mxPoint x="290" y="334.5" as="sourcePoint" />
            <mxPoint x="390" y="334.5" as="targetPoint" />
          </mxGeometry>
        </mxCell>
        <mxCell id="6EPzkCrXPSWuWYdCbaQZ-9" value="Label" style="edgeLabel;resizable=0;html=1;align=center;verticalAlign=middle;" connectable="0" vertex="1" parent="6EPzkCrXPSWuWYdCbaQZ-8">
          <mxGeometry relative="1" as="geometry" />
        </mxCell>
      </root>
    </mxGraphModel>
  </diagram>
</mxfile>
